<?xml version="1.0" encoding="utf-8"?>
<!-- Generator: Adobe Illustrator 25.0.0, SVG Export Plug-In . SVG Version: 6.00 Build 0)  -->
<svg version="1.1" id="Layer_1" xmlns="http://www.w3.org/2000/svg" xmlns:xlink="http://www.w3.org/1999/xlink" x="0px" y="0px"
	 viewBox="0 0 612 792" style="enable-background:new 0 0 612 792;" xml:space="preserve">
<style type="text/css">
	.st0{fill:url(#SVGID_1_);}
	.st1{fill:url(#SVGID_2_);}
	.st2{fill:url(#SVGID_3_);}
	.st3{fill:url(#SVGID_4_);}
	.st4{fill:url(#SVGID_5_);}
</style>
<linearGradient id="SVGID_1_" gradientUnits="userSpaceOnUse" x1="209.5442" y1="295.3741" x2="312.0799" y2="295.3741">
	<stop  offset="0" style="stop-color:#D1C78E"/>
	<stop  offset="0.2296" style="stop-color:#DFD7A7"/>
	<stop  offset="0.5164" style="stop-color:#EDE6BF"/>
	<stop  offset="0.7809" style="stop-color:#F5EFCE"/>
	<stop  offset="1" style="stop-color:#F8F2D3"/>
</linearGradient>
<path class="st0" d="M238.59,370.61c0,0-14.94-5.87-22.96-19.42c0,0-12.17-18.39-2.07-39.63c10.1-21.24,24.17-26.5,30.82-43.17
	c0,0,3.45,9.76-2.42,26.16c0,0-1.18,3.53-0.83,7.29c0.33,3.59,3.23,6.54,6.84,6.52c1.77-0.01,3.65-0.7,4.99-2.97
	c0.76-1.29,1.1-2.77,1.12-4.26c0.09-5.31,0.25-22.34-1.42-31.87l-1.76-12.56c-0.99-7.03-0.66-14.2,1.23-21.04
	c1.68-6.1,4.74-12.53,10.29-16.12c0,0-0.54,1.36-1.21,3.67c-2.95,10.29-2.74,21.22,0.36,31.47c1.82,6.01,4.63,13.9,6.63,17.09
	c0,0,5.03,8.47,8.57,8.81c0,0,4.73,1.51,3.52-9.85c0,0-2.59-16.06-4.49-19.77c0,0,14.69,15.43,18.78,22.47
	c0.53,0.9,1.03,1.82,1.56,2.72c3.51,5.92,15.41,26.9,15.92,44.74c0.6,20.89-10.45,40.32-33.06,50.33c0,0,7.94-23.4,0.43-35.48
	c0,0-1.9,8.98-6.91,10.27c0,0-5.96-0.43-5.87-9.76s6.3-30.22-0.52-38.33c0,0-2.42,25.29-14.76,28.66
	c-12.35,3.37-15.88-12.09-15.88-12.09s-5.96,5.44-7.17,23.65C228.32,338.15,227.37,359.13,238.59,370.61z"/>
<g>
	<g>
		<linearGradient id="SVGID_2_" gradientUnits="userSpaceOnUse" x1="172.4087" y1="387.2569" x2="257.2266" y2="387.2569">
			<stop  offset="0" style="stop-color:#D1C78E"/>
			<stop  offset="0.2296" style="stop-color:#DFD7A7"/>
			<stop  offset="0.5164" style="stop-color:#EDE6BF"/>
			<stop  offset="0.7809" style="stop-color:#F5EFCE"/>
			<stop  offset="1" style="stop-color:#F8F2D3"/>
		</linearGradient>
		<path class="st1" d="M255.05,445.62l-19.07-12.88c-3.36-2.27-6.86-4.32-10.49-6.11c-4.06-2.01-9.36-4.48-13.22-5.72
			c0,0-12.6-3.81-25.61-16.19c-13.09-12.45-15.35-28.68-13.86-38.72c1.49-10.04,10.5-27.78,15.94-37.1c0,0,3.21,0.4,3.69,5.6
			c0.21,2.23-0.2,4.48-1.03,6.56l-1.63,4.07c0,0-5.31,12.08-5.47,22.08c-0.16,10,0.54,15.32,3.08,20.06
			c2.35,4.39,20.56,21.67,35.68,19.08c0,0-13.73-13.08-16.61-22.18c0,0-4.63-10.36-1.49-15.83c0,0,12.72,15.57,16.71,19.1
			c4.04,3.57,24.54,15.54,29.72,23.31S259.5,433.45,255.05,445.62z"/>
		<linearGradient id="SVGID_3_" gradientUnits="userSpaceOnUse" x1="189.7282" y1="355.86" x2="203.9715" y2="355.86">
			<stop  offset="0" style="stop-color:#D1C78E"/>
			<stop  offset="0.2296" style="stop-color:#DFD7A7"/>
			<stop  offset="0.5164" style="stop-color:#EDE6BF"/>
			<stop  offset="0.7809" style="stop-color:#F5EFCE"/>
			<stop  offset="1" style="stop-color:#F8F2D3"/>
		</linearGradient>
		<path class="st2" d="M195.27,386.78c0,0-7.24-9.79-5.16-26.33c0.54-4.29,1.73-8.48,3.35-12.49c2.37-5.87,8.23-17.11,6.52-22.99
			c0,0,6-1.29,3.31,12.65c-0.27,1.4-0.66,2.77-1.13,4.12c-1.39,4-4.7,13.86-5.84,20.83C194.83,371.5,193.15,380.26,195.27,386.78z"
			/>
	</g>
	<g>
		<linearGradient id="SVGID_4_" gradientUnits="userSpaceOnUse" x1="264.3975" y1="387.2569" x2="349.2155" y2="387.2569">
			<stop  offset="0" style="stop-color:#F8F2D3"/>
			<stop  offset="0.4998" style="stop-color:#F7F1D1"/>
			<stop  offset="0.7058" style="stop-color:#F2ECCA"/>
			<stop  offset="0.8572" style="stop-color:#EBE4BE"/>
			<stop  offset="0.9818" style="stop-color:#E0D8AC"/>
			<stop  offset="1" style="stop-color:#DED6A9"/>
		</linearGradient>
		<path class="st3" d="M266.57,445.62l19.07-12.88c3.36-2.27,6.86-4.32,10.49-6.11c4.06-2.01,9.36-4.48,13.22-5.72
			c0,0,12.6-3.81,25.61-16.19c13.09-12.45,15.35-28.68,13.86-38.72c-1.49-10.04-10.5-27.78-15.94-37.1c0,0-3.21,0.4-3.69,5.6
			c-0.21,2.23,0.2,4.48,1.03,6.56l1.63,4.07c0,0,5.31,12.08,5.47,22.08c0.16,10-0.54,15.32-3.08,20.06
			c-2.35,4.39-20.56,21.67-35.68,19.08c0,0,13.73-13.08,16.61-22.18c0,0,4.63-10.36,1.49-15.83c0,0-12.72,15.57-16.71,19.1
			c-4.04,3.57-24.54,15.54-29.72,23.31C265.06,418.51,262.13,433.45,266.57,445.62z"/>
		<linearGradient id="SVGID_5_" gradientUnits="userSpaceOnUse" x1="317.6526" y1="355.86" x2="331.8959" y2="355.86">
			<stop  offset="0" style="stop-color:#F8F2D3"/>
			<stop  offset="0.4998" style="stop-color:#F7F1D1"/>
			<stop  offset="0.7058" style="stop-color:#F2ECCA"/>
			<stop  offset="0.8572" style="stop-color:#EBE4BE"/>
			<stop  offset="0.9818" style="stop-color:#E0D8AC"/>
			<stop  offset="1" style="stop-color:#DED6A9"/>
		</linearGradient>
		<path class="st4" d="M326.36,386.78c0,0,7.24-9.79,5.16-26.33c-0.54-4.29-1.73-8.48-3.35-12.49c-2.37-5.87-8.23-17.11-6.52-22.99
			c0,0-6-1.29-3.31,12.65c0.27,1.4,0.66,2.77,1.13,4.12c1.39,4,4.7,13.86,5.84,20.83C326.79,371.5,328.47,380.26,326.36,386.78z"/>
	</g>
</g>
</svg>
